<?xml version="1.0" encoding="utf-8"?>
<!-- Generator: Adobe Illustrator 28.3.0, SVG Export Plug-In . SVG Version: 6.00 Build 0)  -->
<svg version="1.1" id="Layer_1" xmlns="http://www.w3.org/2000/svg" xmlns:xlink="http://www.w3.org/1999/xlink" x="0px" y="0px"
	 viewBox="0 0 224.1 374.9" style="enable-background:new 0 0 224.1 374.9;" xml:space="preserve">
<style type="text/css">
	.st0{fill:#A82890;}
</style>
<path class="st0" d="M112,374.9c-20.7,0-37.6-16.9-37.6-37.6c0-7.4,2.1-14.5,6.2-20.6c2.3-3.4,2.4-7.7,0.5-11.3
	c-2-3.7-5.7-5.9-9.9-5.9H0v-71.2c0-0.1,0-0.1,0-0.2c0-0.4,0-0.7,0.1-1.1c0.6-5.2,5-9.1,10.2-9.1c1.9,0,3.8,0.6,5.5,1.7
	c6.3,4.1,13.6,6.3,21.2,6.3c10.5,0,20.3-4.1,27.6-11.6c7.3-7.5,11.2-17.4,10.9-27.8C75,166,57.9,149.1,37.3,149H37
	c-7.6,0-14.9,2.2-21.1,6.3c-1.7,1.1-3.6,1.7-5.6,1.7c-5.2,0-9.6-3.9-10.2-9c-0.1-0.4-0.1-0.7-0.1-1c0-0.1,0-0.2,0-0.2V75.5h71.2
	c4.2,0,7.9-2.2,9.8-5.9c2-3.7,1.8-7.9-0.5-11.4c-4.1-6.2-6.2-13.5-6.1-20.9C74.6,17.2,91.1,0.5,111.1,0c0.3,0,0.6,0,0.9,0
	c20.7,0,37.6,16.9,37.6,37.6c0,7.4-2.1,14.5-6.2,20.7c-2.3,3.4-2.4,7.7-0.5,11.3c2,3.7,5.7,5.9,9.9,5.9H224l0,224h-71.2
	c-4.2,0-7.8,2.2-9.8,5.9c-2,3.7-1.8,7.9,0.5,11.4c4.1,6.2,6.2,13.5,6.1,20.9c-0.2,20-16.6,36.8-36.7,37.2
	C112.7,374.9,112.4,374.9,112,374.9z"/>
</svg>
