<?xml version="1.0" encoding="utf-8"?>
<!-- Generator: Adobe Illustrator 28.3.0, SVG Export Plug-In . SVG Version: 6.00 Build 0)  -->
<svg version="1.1" id="Layer_1" xmlns="http://www.w3.org/2000/svg" xmlns:xlink="http://www.w3.org/1999/xlink" x="0px" y="0px"
	 viewBox="0 0 299.44 224.05" style="enable-background:new 0 0 299.44 224.05;" xml:space="preserve">
<style type="text/css">
	.st0{fill:#F7921E;}
</style>
<path class="st0" d="M75.45,152.81c0-1.2-0.18-2.37-0.54-3.47c-0.11-0.33-0.24-0.68-0.39-1.04c-0.07-0.15-0.14-0.31-0.21-0.46
	c-0.32-0.63-0.67-1.19-1.05-1.7c-0.25-0.34-0.53-0.67-0.85-1c-0.13-0.13-0.26-0.26-0.38-0.38c-1.44-1.38-3.25-2.36-5.21-2.83
	c-0.28-0.07-0.56-0.12-0.84-0.17c-0.57-0.09-1.15-0.14-1.72-0.14c-0.51,0-1.03,0.04-1.54,0.11c-0.24,0.04-0.48,0.08-0.71,0.13
	l-0.06,0.01c-0.61,0.13-1.21,0.32-1.82,0.57H60.1l-0.1,0.04c-0.21,0.1-0.42,0.19-0.63,0.29h-0.01l-0.11,0.05
	c-0.36,0.19-0.71,0.4-1.09,0.64c-6.12,4.02-13.24,6.15-20.59,6.15l-0.34,0c-6.05-0.05-12.07-1.61-17.4-4.49l-0.07-0.04
	c-0.71-0.38-1.4-0.78-2.08-1.21v-0.21l-0.34,0c-0.38-0.24-0.76-0.49-1.16-0.77v-0.23l-0.32,0c-0.43-0.3-0.85-0.62-1.3-0.96
	c-0.24-0.18-0.47-0.37-0.7-0.56c-0.91-0.74-1.79-1.53-2.63-2.36c-0.73-0.71-1.44-1.47-2.12-2.26c-0.33-0.37-0.66-0.77-0.99-1.19
	c-0.3-0.38-0.59-0.77-0.89-1.15l-0.06-0.08c-0.35-0.48-0.68-0.96-1.01-1.45c-0.32-0.48-0.64-0.99-0.94-1.51
	c-0.32-0.53-0.64-1.1-0.98-1.75c-0.08-0.15-0.16-0.3-0.23-0.44l-0.08-0.16c-0.05-0.09-0.09-0.18-0.13-0.27
	c-0.12-0.25-0.24-0.48-0.34-0.72l-0.03-0.06c-0.14-0.3-0.29-0.63-0.42-0.97c-0.16-0.35-0.3-0.7-0.44-1.04
	c-0.12-0.31-0.25-0.64-0.36-0.97l-0.03-0.09c-0.07-0.18-0.13-0.37-0.2-0.55l-0.11-0.31l-0.26-0.84c-0.18-0.59-0.35-1.18-0.5-1.76
	c-0.08-0.33-0.14-0.6-0.2-0.87c-0.07-0.3-0.13-0.6-0.19-0.89c-0.06-0.27-0.11-0.54-0.15-0.8c-0.02-0.1-0.03-0.18-0.04-0.25
	c-0.05-0.26-0.08-0.52-0.12-0.77c-0.04-0.25-0.08-0.5-0.11-0.75c-0.12-0.91-0.2-1.8-0.24-2.66c-0.01-0.18-0.02-0.33-0.02-0.5
	c-0.01-0.25-0.02-0.47-0.03-0.68c-0.03-1.27,0-2.55,0.09-3.86c0.08-0.95,0.19-1.9,0.32-2.82c0.23-1.5,0.56-3.04,0.99-4.57
	c0.32-1.12,0.71-2.29,1.18-3.49c0.21-0.53,0.44-1.08,0.71-1.68c0.5-1.1,1.06-2.19,1.66-3.24c0.3-0.52,0.62-1.04,0.94-1.55
	c0.5-0.77,1.02-1.52,1.54-2.22c1.09-1.45,2.28-2.83,3.55-4.09c1.5-1.5,3.13-2.88,4.82-4.07c0.68-0.48,1.39-0.96,2.18-1.44l0.09-0.05
	c1.28-0.77,2.6-1.48,3.94-2.09l0.08-0.03c1.66-0.75,3.38-1.38,5.12-1.88l0.06-0.01c0.55-0.15,1.11-0.3,1.67-0.43l0.08-0.02h0.07
	l0.04-0.02c0.58-0.13,1.15-0.25,1.74-0.36l0.04-0.01c2.2-0.39,4.44-0.59,6.65-0.59c0.24,0,0.47,0,0.71,0.01
	c0.43,0.01,0.85,0.03,1.26,0.04c0.01,0,0.05,0,0.06,0c0.03,0,0.06,0,0.09,0.01c0.28,0.02,0.49,0.03,0.71,0.05
	c0.25,0.01,0.46,0.03,0.68,0.05c0.2,0.02,0.37,0.03,0.54,0.05c0.31,0.03,0.59,0.06,0.88,0.1c0.23,0.03,0.45,0.06,0.68,0.09
	c0.23,0.03,0.46,0.07,0.68,0.11c0.25,0.04,0.47,0.08,0.69,0.12c0.24,0.04,0.46,0.08,0.68,0.13c0.23,0.05,0.45,0.1,0.67,0.15
	c0.23,0.05,0.44,0.1,0.66,0.15c0.25,0.06,0.49,0.12,0.73,0.19c0.83,0.22,1.69,0.48,2.54,0.78c1.25,0.43,2.51,0.94,3.74,1.52
	c0.73,0.35,1.37,0.67,1.96,1c0.14,0.07,0.28,0.15,0.41,0.22l0.1,0.06c0.11,0.06,0.21,0.12,0.32,0.19c0.64,0.37,1.26,0.75,1.86,1.15
	c1.82,1.2,3.89,1.83,6.01,1.83c0.32,0,0.65-0.01,0.97-0.04c0.31-0.02,0.62-0.06,0.94-0.12c0.29-0.04,0.6-0.11,0.92-0.2
	c0.3-0.08,0.59-0.17,0.88-0.27c0.63-0.22,1.24-0.5,1.83-0.84l0.12-0.06c0.2-0.12,0.4-0.24,0.6-0.39c0.17-0.11,0.37-0.25,0.57-0.4
	c0.37-0.28,0.73-0.59,1.06-0.92c0.17-0.15,0.33-0.33,0.49-0.51c0.13-0.14,0.26-0.3,0.39-0.46c0.03-0.03,0.06-0.07,0.08-0.1
	c0.16-0.21,0.29-0.38,0.41-0.56c0.14-0.19,0.27-0.4,0.39-0.61c0.22-0.36,0.43-0.78,0.63-1.22c0.06-0.13,0.11-0.26,0.16-0.39
	c0.15-0.38,0.27-0.73,0.36-1.07l0.09-0.35l0-0.02c0.06-0.25,0.11-0.49,0.15-0.74c0.01-0.06,0.03-0.14,0.04-0.22
	c0.02-0.1,0.04-0.24,0.05-0.39c0.03-0.18,0.05-0.39,0.05-0.6c0.01-0.1,0.01-0.19,0.01-0.28c0.01-0.12,0.01-0.28,0.01-0.45
	L75.43,0.02L299.42,0l0.02,224.03l-71.2,0.01c-3.83,0-7.21-2.03-9.04-5.42c-1.8-3.33-1.63-7.2,0.43-10.34
	c4.15-6.29,6.34-13.61,6.34-21.18c0-21.23-17.28-38.51-38.52-38.51c-0.31,0-0.62,0-0.94,0.01c-20.55,0.49-37.4,17.61-37.57,38.17
	c-0.07,7.67,2.11,15.08,6.31,21.45c2.09,3.18,2.26,7.08,0.45,10.44c-1.82,3.37-5.19,5.38-9.01,5.38l-71.24,0.01L75.45,152.81z"/>
</svg>
