<?xml version="1.0" encoding="utf-8"?>
<!-- Generator: Adobe Illustrator 28.3.0, SVG Export Plug-In . SVG Version: 6.00 Build 0)  -->
<svg version="1.1" id="Layer_1" xmlns="http://www.w3.org/2000/svg" xmlns:xlink="http://www.w3.org/1999/xlink" x="0px" y="0px"
	 viewBox="0 0 224.1 375.4" style="enable-background:new 0 0 224.1 375.4;" xml:space="preserve">
<style type="text/css">
	.st0{fill:#D4DE25;}
</style>
<path class="st0" d="M71,75.7c6.2,0,11.2-5,11.2-11.2c0-2.1-0.6-4.2-1.8-6.1c-4-6.1-6.1-13.2-6.1-20.6v-0.3
	c0.2-20,16.6-36.7,36.7-37.2C121.1,0,130.7,3.8,138,10.9c7.3,7.1,11.3,16.7,11.3,26.9c0,7.4-2.1,14.5-6.2,20.7
	c-1.2,1.8-1.8,3.9-1.8,6c0,6.2,5,11.2,11.2,11.2h71.2v71.2c0,3.8-2,7.2-5.4,9.1c-3.3,1.8-7.2,1.6-10.3-0.4
	c-6.3-4.1-13.6-6.3-21.2-6.3c-21.2,0-38.5,17.3-38.5,38.5c0,0.3,0,0.6,0,0.9c0.5,20.6,17.6,37.4,38.2,37.6
	c7.7,0.1,15.1-2.1,21.5-6.3c3.2-2.1,7.1-2.3,10.4-0.4c3.4,1.8,5.4,5.2,5.4,9v71.2h-71.2c-0.5,0-0.9,0-1.4,0.1
	c-5.6,0.7-9.8,5.4-9.8,11.1c0,2.1,0.6,4.2,1.9,6.1c4,6.1,6.1,13.2,6.1,20.6v0.3c-0.2,20.1-16.6,36.8-36.7,37.2
	c-10.2,0.2-19.9-3.5-27.2-10.7s-11.3-16.7-11.3-26.9c0-7.4,2.1-14.5,6.2-20.6c1.2-1.8,1.8-3.9,1.8-6c0-5.7-4.2-10.5-9.9-11.1
	c-0.4,0-0.9-0.1-1.4-0.1H-0.2v-71.2c0-3.8,2-7.2,5.4-9.1c3.3-1.8,7.2-1.6,10.3,0.4c6.3,4.1,13.6,6.3,21.2,6.3
	c21.2,0,38.5-17.3,38.5-38.5c0-0.3,0-0.6,0-0.9c-0.5-20.6-17.6-37.4-38.2-37.6c-7.7-0.1-15.1,2.1-21.4,6.3
	c-3.2,2.1-7.1,2.3-10.4,0.4c-3.4-1.8-5.4-5.2-5.4-9V75.7L71,75.7L71,75.7z"/>
</svg>
