<?xml version="1.0" encoding="utf-8"?>
<!-- Generator: Adobe Illustrator 28.3.0, SVG Export Plug-In . SVG Version: 6.00 Build 0)  -->
<svg version="1.1" id="Layer_1" xmlns="http://www.w3.org/2000/svg" xmlns:xlink="http://www.w3.org/1999/xlink" x="0px" y="0px"
	 viewBox="0 0 375.4 224.1" style="enable-background:new 0 0 375.4 224.1;" xml:space="preserve">
<style type="text/css">
	.st0{fill:#D0DEE7;}
</style>
<path class="st0" d="M75.4,152.8c0-6.2-5-11.2-11.2-11.2c-2.1,0-4.2,0.6-6.1,1.8c-6.1,4-13.2,6.1-20.6,6.1h-0.3
	C17.2,149.4,0.5,133,0,113c-0.2-10.2,3.5-19.9,10.7-27.2c7.1-7.3,16.7-11.3,26.9-11.3c7.4,0,14.5,2.1,20.7,6.2
	c1.8,1.2,3.9,1.8,6,1.8c6.2,0,11.2-5,11.2-11.2V0h71.2c3.8,0,7.2,2,9.1,5.4c1.8,3.3,1.6,7.2-0.4,10.4c-4.1,6.3-6.3,13.6-6.3,21.2
	c0,21.2,17.3,38.5,38.5,38.5c0.3,0,0.6,0,0.9,0c20.6-0.5,37.4-17.6,37.6-38.2c0.1-7.7-2.1-15.1-6.3-21.5c-2.1-3.2-2.3-7.1-0.4-10.4
	c1.8-3.4,5.2-5.4,9-5.4h71.2v71.2c0,0.5,0,0.9,0.1,1.4c0.7,5.6,5.4,9.8,11.1,9.8c2.1,0,4.2-0.6,6.1-1.8c6.1-4,13.2-6.2,20.6-6.2h0.3
	c20.1,0.2,36.8,16.6,37.2,36.7c0.2,10.2-3.5,19.9-10.7,27.2s-16.7,11.3-26.9,11.3c-7.4,0-14.5-2.1-20.6-6.2c-1.8-1.2-3.9-1.8-6-1.8
	c-5.7,0-10.5,4.2-11.1,9.9c0,0.4-0.1,0.9-0.1,1.4V224h-71.2c-3.8,0-7.2-2-9.1-5.4c-1.8-3.3-1.6-7.2,0.4-10.3
	c4.1-6.3,6.3-13.6,6.3-21.2c0-21.2-17.3-38.5-38.5-38.5c-0.3,0-0.6,0-0.9,0c-20.6,0.5-37.4,17.6-37.6,38.2
	c-0.1,7.7,2.1,15.1,6.3,21.4c2.1,3.2,2.3,7.1,0.4,10.4c-1.8,3.4-5.2,5.4-9,5.4H75.4V152.8L75.4,152.8z"/>
</svg>
