<?xml version="1.0" encoding="utf-8"?>
<!-- Generator: Adobe Illustrator 28.3.0, SVG Export Plug-In . SVG Version: 6.00 Build 0)  -->
<svg version="1.1" id="Layer_1" xmlns="http://www.w3.org/2000/svg" xmlns:xlink="http://www.w3.org/1999/xlink" x="0px" y="0px"
	 viewBox="0 0 224.1 299.4" style="enable-background:new 0 0 224.1 299.4;" xml:space="preserve">
<style type="text/css">
	.st0{fill:#C97EAB;}
</style>
<path class="st0" d="M152.8,224c-1.2,0-2.4,0.2-3.5,0.5c-0.3,0.1-0.7,0.2-1,0.4c-0.1,0.1-0.3,0.1-0.5,0.2c-0.6,0.3-1.2,0.7-1.7,1.1
	c-0.3,0.2-0.7,0.5-1,0.9c-0.1,0.1-0.3,0.3-0.4,0.4c-1.4,1.4-2.4,3.2-2.8,5.2c-0.1,0.3-0.1,0.6-0.2,0.8c-0.1,0.6-0.1,1.1-0.1,1.7
	c0,0.5,0,1,0.1,1.5c0,0.2,0.1,0.5,0.1,0.7v0.1c0.1,0.6,0.3,1.2,0.6,1.8l0,0v0.1c0.1,0.2,0.2,0.4,0.3,0.6l0,0l0.1,0.1
	c0.2,0.4,0.4,0.7,0.6,1.1c4,6.1,6.1,13.2,6.1,20.6v0.3c-0.1,6-1.6,12.1-4.5,17.4v0.1c-0.4,0.7-0.8,1.4-1.2,2.1h-0.2v0.3
	c-0.2,0.4-0.5,0.8-0.8,1.2h-0.2v0.3c-0.3,0.4-0.6,0.9-1,1.3c-0.2,0.2-0.4,0.5-0.6,0.7c-0.7,0.9-1.5,1.8-2.4,2.6
	c-0.7,0.7-1.5,1.4-2.3,2.1c-0.4,0.3-0.8,0.7-1.2,1s-0.8,0.6-1.1,0.9l-0.1,0.1c-0.5,0.4-1,0.7-1.4,1c-0.5,0.3-1,0.6-1.5,0.9
	s-1.1,0.6-1.8,1c-0.1,0.1-0.3,0.2-0.4,0.2l-0.2,0.1c-0.1,0.1-0.2,0.1-0.3,0.1c-0.2,0.1-0.5,0.2-0.7,0.3h-0.1c-0.3,0.1-0.6,0.3-1,0.4
	c-0.3,0.2-0.7,0.3-1,0.4s-0.6,0.2-1,0.4h-0.1c-0.2,0.1-0.4,0.1-0.6,0.2l-0.3,0.1l-0.8,0.3c-0.6,0.2-1.2,0.4-1.8,0.5
	c-0.3,0.1-0.6,0.1-0.9,0.2s-0.6,0.1-0.9,0.2s-0.5,0.1-0.8,0.1c-0.1,0-0.2,0-0.2,0c-0.3,0.1-0.5,0.1-0.8,0.1c-0.2,0-0.5,0.1-0.8,0.1
	c-0.9,0.1-1.8,0.2-2.7,0.2c-0.2,0-0.3,0-0.5,0s-0.5,0-0.7,0c-1.3,0-2.6,0-3.9-0.1c-0.9-0.1-1.9-0.2-2.8-0.3c-1.5-0.2-3-0.6-4.6-1
	c-1.1-0.3-2.3-0.7-3.5-1.2c-0.5-0.2-1.1-0.4-1.7-0.7c-1.1-0.5-2.2-1.1-3.2-1.7c-0.5-0.3-1-0.6-1.6-0.9c-0.8-0.5-1.5-1-2.2-1.5
	c-1.4-1.1-2.8-2.3-4.1-3.6c-1.5-1.5-2.9-3.1-4.1-4.8c-0.5-0.7-1-1.4-1.4-2.2l-0.1-0.1c-0.8-1.3-1.5-2.6-2.1-3.9v-0.1
	c-0.8-1.7-1.4-3.4-1.9-5.1v-0.1c-0.2-0.5-0.3-1.1-0.4-1.7v-0.1v-0.1l0,0c-0.1-0.6-0.2-1.1-0.4-1.7l0,0c-0.4-2.2-0.6-4.4-0.6-6.6
	c0-0.2,0-0.5,0-0.7c0-0.4,0-0.8,0-1.3v-0.1v-0.1c0-0.3,0-0.5,0.1-0.7c0-0.2,0-0.5,0.1-0.7c0-0.2,0-0.4,0.1-0.5
	c0-0.3,0.1-0.6,0.1-0.9c0-0.2,0.1-0.4,0.1-0.7c0-0.2,0.1-0.5,0.1-0.7s0.1-0.5,0.1-0.7s0.1-0.5,0.1-0.7c0.1-0.2,0.1-0.5,0.2-0.7
	s0.1-0.4,0.2-0.7c0.1-0.2,0.1-0.5,0.2-0.7c0.2-0.8,0.5-1.7,0.8-2.5c0.4-1.2,0.9-2.5,1.5-3.7c0.3-0.7,0.7-1.4,1-2
	c0.1-0.1,0.2-0.3,0.2-0.4l0.1-0.1c0.1-0.1,0.1-0.2,0.2-0.3c0.4-0.6,0.8-1.3,1.2-1.9c1.2-1.8,1.8-3.9,1.8-6c0-0.3,0-0.7,0-1
	s-0.1-0.6-0.1-0.9c0-0.3-0.1-0.6-0.2-0.9c-0.1-0.3-0.2-0.6-0.3-0.9c-0.2-0.6-0.5-1.2-0.8-1.8l-0.1-0.1c-0.1-0.2-0.2-0.4-0.4-0.6
	c-0.1-0.2-0.2-0.4-0.4-0.6c-0.3-0.4-0.6-0.7-0.9-1.1c-0.2-0.2-0.3-0.3-0.5-0.5c-0.1-0.1-0.3-0.3-0.5-0.4l-0.1-0.1
	c-0.2-0.2-0.4-0.3-0.6-0.4c-0.2-0.1-0.4-0.3-0.6-0.4c-0.4-0.2-0.8-0.4-1.2-0.6c-0.1-0.1-0.3-0.1-0.4-0.2c-0.4-0.2-0.7-0.3-1.1-0.4
	l-0.3-0.1l0,0c-0.2-0.1-0.5-0.1-0.7-0.2c-0.1,0-0.1,0-0.2,0s-0.2,0-0.4-0.1c-0.2,0-0.4-0.1-0.6-0.1c-0.1,0-0.2,0-0.3,0
	c-0.1,0-0.3,0-0.4,0L0,224V0h224v71.2c0,3.8-2,7.2-5.4,9c-3.3,1.8-7.2,1.6-10.3-0.4c-6.3-4.1-13.6-6.3-21.2-6.3
	c-21.2,0-38.5,17.3-38.5,38.5c0,0.3,0,0.6,0,0.9c0.5,20.6,17.6,37.4,38.2,37.6c7.7,0.1,15.1-2.1,21.4-6.3c3.2-2.1,7.1-2.3,10.4-0.4
	c3.4,1.8,5.4,5.2,5.4,9V224H152.8z"/>
</svg>
