<?xml version="1.0" encoding="UTF-8"?>
<svg id="Layer_1" data-name="Layer 1" xmlns="http://www.w3.org/2000/svg" viewBox="0 0 299.44 224.06">
  <defs>
    <style>
      .cls-1 {
        fill: #02a99c;
        stroke-width: 0px;
      }
    </style>
  </defs>
  <path class="cls-1" d="M75.45,152.82c0-6.17-5.02-11.19-11.2-11.19-2.14,0-4.24.64-6.08,1.84-6.12,4.02-13.24,6.15-20.59,6.15h-.34C17.19,149.44.49,133,.01,112.96c-.24-10.22,3.55-19.87,10.68-27.17,7.13-7.3,16.68-11.32,26.88-11.33,7.38,0,14.52,2.14,20.65,6.18,1.82,1.2,3.9,1.83,6.02,1.83,6.17,0,11.19-5.03,11.2-11.21V.02s71.23,0,71.23,0h0c3.84,0,7.22,2.03,9.05,5.42,1.8,3.34,1.63,7.2-.44,10.35-4.15,6.28-6.34,13.6-6.34,21.17,0,21.23,17.28,38.51,38.51,38.51.31,0,.63,0,.94-.01,20.54-.49,37.4-17.61,37.57-38.16.07-7.66-2.11-15.08-6.29-21.46-2.09-3.18-2.26-7.09-.45-10.44C221.04,2.03,224.41.01,228.23.01h0s71.19-.01,71.19-.01l.02,224.04h-71.19c-3.84,0-7.22-2.02-9.04-5.41-1.79-3.33-1.63-7.2.44-10.33,4.15-6.29,6.34-13.61,6.34-21.18,0-21.23-17.28-38.51-38.52-38.51-.31,0-.63,0-.94.01-20.55.49-37.4,17.61-37.57,38.17-.07,7.66,2.11,15.08,6.3,21.45,2.09,3.19,2.26,7.09.45,10.45-1.82,3.37-5.18,5.38-9.01,5.38h-71.24s0-71.23,0-71.23Z"/>
</svg>