<?xml version="1.0" encoding="utf-8"?>
<!-- Generator: Adobe Illustrator 28.3.0, SVG Export Plug-In . SVG Version: 6.00 Build 0)  -->
<svg version="1.1" id="Layer_1" xmlns="http://www.w3.org/2000/svg" xmlns:xlink="http://www.w3.org/1999/xlink" x="0px" y="0px"
	 viewBox="0 0 224.1 374.9" style="enable-background:new 0 0 224.1 374.9;" xml:space="preserve">
<style type="text/css">
	.st0{fill:#6C71B4;}
</style>
<path class="st0" d="M112,0c20.7,0,37.6,16.9,37.6,37.6c0,7.4-2.1,14.5-6.2,20.6c-2.3,3.4-2.4,7.7-0.5,11.3c2,3.7,5.7,5.9,9.9,5.9
	H224v71.4c0,0.4,0,0.7-0.1,1.1c-0.6,5.2-5,9.1-10.2,9.1c-1.9,0-3.8-0.6-5.5-1.7c-6.3-4.1-13.6-6.3-21.2-6.3
	c-10.5,0-20.3,4.1-27.6,11.6s-11.2,17.4-10.9,27.8c0.5,20.5,17.6,37.4,38.2,37.5h0.3c7.6,0,14.9-2.2,21.1-6.3
	c1.7-1.1,3.6-1.7,5.6-1.7c5.2,0,9.6,3.9,10.2,9c0.1,0.4,0.1,0.7,0.1,1v71.5h-71.2c-4.2,0-7.9,2.2-9.8,5.9c-2,3.7-1.8,7.9,0.5,11.4
	c4.1,6.2,6.2,13.5,6.1,20.9c-0.2,20.1-16.7,36.8-36.7,37.3H112c-20.7,0-37.6-16.9-37.6-37.6c0-7.4,2.1-14.5,6.2-20.7
	c2.3-3.4,2.4-7.7,0.5-11.3c-2-3.7-5.7-5.9-9.9-5.9H0v-224h71.2c4.2,0,7.8-2.2,9.8-5.9c2-3.7,1.8-7.9-0.5-11.4
	c-4.1-6.2-6.2-13.5-6.1-20.9C74.6,17.2,91,0.4,111.1,0H112z"/>
</svg>
