<?xml version="1.0" encoding="UTF-8"?>
<svg id="Layer_1" data-name="Layer 1" xmlns="http://www.w3.org/2000/svg" viewBox="0 0 224.1 374.9">
  <defs>
    <style>
      .cls-1 {
        fill: #a82890;
        stroke-width: 0px;
      }
    </style>
  </defs>
  <path class="cls-1" d="M112,0c20.7,0,37.6,16.9,37.6,37.6,0,7.4-2.1,14.5-6.2,20.6-2.3,3.4-2.4,7.7-.5,11.3,2,3.7,5.7,5.9,9.9,5.9h71.2v71.4c0,.4,0,.7-.1,1.1-.6,5.2-5,9.1-10.2,9.1-1.9,0-3.8-.6-5.5-1.7-6.3-4.1-13.6-6.3-21.2-6.3-10.5,0-20.3,4.1-27.6,11.6-7.3,7.5-11.2,17.4-10.9,27.8.5,20.5,17.6,37.4,38.2,37.5h.3c7.6,0,14.9-2.2,21.1-6.3,1.7-1.1,3.6-1.7,5.6-1.7,5.2,0,9.6,3.9,10.2,9,.1.4.1.7.1,1v71.5h-71.2c-4.2,0-7.9,2.2-9.8,5.9-2,3.7-1.8,7.9.5,11.4,4.1,6.2,6.2,13.5,6.1,20.9-.2,20.1-16.7,36.8-36.7,37.3h-.9c-20.7,0-37.6-16.9-37.6-37.6,0-7.4,2.1-14.5,6.2-20.7,2.3-3.4,2.4-7.7.5-11.3-2-3.7-5.7-5.9-9.9-5.9H0V75.4h71.2c4.2,0,7.8-2.2,9.8-5.9,2-3.7,1.8-7.9-.5-11.4-4.1-6.2-6.2-13.5-6.1-20.9C74.6,17.2,91,.4,111.1,0h.9Z"/>
</svg>