<?xml version="1.0" encoding="utf-8"?>
<!-- Generator: Adobe Illustrator 28.3.0, SVG Export Plug-In . SVG Version: 6.00 Build 0)  -->
<svg version="1.1" id="Layer_1" xmlns="http://www.w3.org/2000/svg" xmlns:xlink="http://www.w3.org/1999/xlink" x="0px" y="0px"
	 viewBox="0 0 374.9 224.1" style="enable-background:new 0 0 374.9 224.1;" xml:space="preserve">
<style type="text/css">
	.st0{fill:#6C71B4;}
</style>
<path class="st0" d="M0,112c0-20.7,16.9-37.6,37.6-37.6c7.4,0,14.5,2.1,20.6,6.2c3.4,2.3,7.7,2.4,11.3,0.5c3.7-2,5.9-5.7,5.9-9.9V0
	h71.2c0.1,0,0.1,0,0.2,0c0.4,0,0.7,0,1.1,0.1c5.2,0.6,9.1,5,9.1,10.2c0,1.9-0.6,3.8-1.7,5.5c-4.1,6.3-6.3,13.6-6.3,21.2
	c0,10.5,4.1,20.3,11.6,27.6s17.4,11.2,27.8,10.9c20.5-0.5,37.4-17.6,37.6-38.2V37c0-7.6-2.2-14.9-6.3-21.1c-1.1-1.7-1.7-3.6-1.7-5.6
	c0-5.2,3.9-9.6,9-10.2c0.4-0.1,0.7-0.1,1-0.1c0.1,0,0.2,0,0.2,0h71.2v71.2c0,4.2,2.2,7.9,5.9,9.8c3.7,2,7.9,1.8,11.4-0.5
	c6.2-4.1,13.5-6.2,20.9-6.1c20.1,0.2,36.8,16.6,37.2,36.7c0,0.3,0,0.6,0,0.9c0,20.7-16.9,37.6-37.6,37.6c-7.4,0-14.5-2.1-20.7-6.2
	c-3.4-2.3-7.6-2.4-11.3-0.5c-3.7,2-5.9,5.7-5.9,9.9V224h-224v-71.2c0-4.2-2.2-7.8-5.9-9.8c-3.7-2-7.9-1.8-11.4,0.5
	c-6.2,4.1-13.5,6.2-20.9,6.1C17.2,149.4,0.5,133,0,113C0,112.6,0,112.3,0,112z"/>
</svg>
