<?xml version="1.0" encoding="utf-8"?>
<!-- Generator: Adobe Illustrator 28.3.0, SVG Export Plug-In . SVG Version: 6.00 Build 0)  -->
<svg version="1.1" id="Layer_1" xmlns="http://www.w3.org/2000/svg" xmlns:xlink="http://www.w3.org/1999/xlink" x="0px" y="0px"
	 viewBox="0 0 374.93 224.06" style="enable-background:new 0 0 374.93 224.06;" xml:space="preserve">
<style type="text/css">
	.st0{fill:#A82890;}
</style>
<path class="st0" d="M374.94,112.03c0,20.72-16.85,37.57-37.57,37.57c-7.38,0-14.52-2.14-20.65-6.18
	c-3.44-2.27-7.66-2.45-11.31-0.48c-3.7,1.99-5.91,5.68-5.91,9.87v71.24h-71.23c-0.06,0-0.12,0-0.17,0c-0.38,0-0.72-0.02-1.06-0.07
	c-5.16-0.6-9.05-4.98-9.05-10.19c0-1.94,0.58-3.84,1.68-5.5c4.15-6.29,6.34-13.61,6.34-21.17c0-10.47-4.12-20.26-11.61-27.57
	c-7.48-7.31-17.37-11.19-27.84-10.94c-20.54,0.49-37.4,17.61-37.58,38.17v0.32c0,7.55,2.18,14.85,6.3,21.13
	c1.11,1.69,1.69,3.61,1.69,5.57c0,5.2-3.87,9.58-9,10.18c-0.36,0.05-0.69,0.07-1.03,0.07c-0.1,0-0.16,0-0.22,0H75.48v-71.23
	c0-4.17-2.19-7.85-5.87-9.83c-3.66-1.98-7.93-1.8-11.41,0.49c-6.21,4.09-13.45,6.21-20.93,6.15C17.2,149.46,0.5,133.02,0.02,112.97
	c0-0.31-0.01-0.61-0.01-0.92c0-20.72,16.85-37.58,37.57-37.58c7.38,0,14.53,2.14,20.66,6.19c3.43,2.26,7.65,2.44,11.3,0.48
	c3.7-1.99,5.91-5.68,5.92-9.87V0.03l224.03-0.02v71.24c0,4.18,2.2,7.85,5.88,9.83c3.67,1.98,7.93,1.79,11.4-0.49
	c6.22-4.08,13.46-6.21,20.93-6.14c20.05,0.17,36.75,16.61,37.23,36.66C374.93,111.42,374.94,111.72,374.94,112.03z"/>
</svg>
