<?xml version="1.0" encoding="utf-8"?>
<!-- Generator: Adobe Illustrator 28.3.0, SVG Export Plug-In . SVG Version: 6.00 Build 0)  -->
<svg version="1.1" id="Layer_1" xmlns="http://www.w3.org/2000/svg" xmlns:xlink="http://www.w3.org/1999/xlink" x="0px" y="0px"
	 viewBox="0 0 299.44 224.05" style="enable-background:new 0 0 299.44 224.05;" xml:space="preserve">
<style type="text/css">
	.st0{fill:#70CDDD;}
</style>
<path class="st0" d="M75.45,152.82c0-6.17-5.02-11.19-11.2-11.19c-2.14,0-4.24,0.64-6.08,1.84c-6.12,4.02-13.24,6.15-20.59,6.15
	l-0.34,0C17.19,149.44,0.49,133,0.01,112.96c-0.24-10.22,3.55-19.87,10.68-27.17c7.13-7.3,16.68-11.33,26.88-11.33
	c7.38,0,14.52,2.14,20.65,6.18c1.82,1.2,3.9,1.83,6.02,1.83c6.17,0,11.19-5.03,11.2-11.21L75.43,0.02l71.24-0.01
	c3.84,0,7.22,2.02,9.05,5.41c1.8,3.34,1.63,7.2-0.44,10.35c-4.15,6.28-6.34,13.61-6.34,21.17c0,21.23,17.28,38.51,38.51,38.51
	c0,0,0,0,0,0c0.31,0,0.62,0,0.94-0.01c20.55-0.49,37.4-17.61,37.57-38.16c0.07-7.66-2.11-15.08-6.29-21.46
	c-2.09-3.18-2.26-7.09-0.45-10.44c1.82-3.37,5.18-5.38,9.01-5.38L299.42,0l0.02,224.03l-223.98,0.02L75.45,152.82z"/>
</svg>
