<?xml version="1.0" encoding="utf-8"?>
<!-- Generator: Adobe Illustrator 28.3.0, SVG Export Plug-In . SVG Version: 6.00 Build 0)  -->
<svg version="1.1" id="Layer_1" xmlns="http://www.w3.org/2000/svg" xmlns:xlink="http://www.w3.org/1999/xlink" x="0px" y="0px"
	 viewBox="0 0 224.1 299.4" style="enable-background:new 0 0 224.1 299.4;" xml:space="preserve">
<style type="text/css">
	.st0{fill:#70CDDD;}
</style>
<path class="st0" d="M71.2,75.5c6.2,0,11.2-5,11.2-11.2c0-2.1-0.6-4.2-1.8-6.1c-4-6.1-6.1-13.2-6.1-20.6v-0.3
	C74.6,17.2,91,0.5,111.1,0c10.2-0.2,19.9,3.5,27.2,10.7c7.3,7.1,11.3,16.7,11.3,26.9c0,7.4-2.1,14.5-6.2,20.7
	c-1.2,1.8-1.8,3.9-1.8,6c0,6.2,5,11.2,11.2,11.2l71.2,0l0,71.2c0,3.8-2,7.2-5.4,9.1c-3.3,1.8-7.2,1.6-10.4-0.4
	c-6.3-4.1-13.6-6.3-21.2-6.3c-21.2,0-38.5,17.3-38.5,38.5l0,0c0,0.3,0,0.6,0,0.9c0.5,20.6,17.6,37.4,38.2,37.6
	c7.7,0.1,15.1-2.1,21.5-6.3c3.2-2.1,7.1-2.3,10.4-0.4c3.4,1.8,5.4,5.2,5.4,9v71.2l-224,0l0-224L71.2,75.5z"/>
</svg>
